<svg xmlns="http://www.w3.org/2000/svg" viewBox="0 0 800 600" width="800" height="600">
  <style>
    .node { fill: #2563eb; filter: drop-shadow(0 0 5px #2563eb); }
    .node-orange { fill: #ea580c; filter: drop-shadow(0 0 5px #ea580c); }
    .connection { stroke: rgba(37, 99, 235, 0.15); stroke-width: 1; }
    .pulse-node { animation: pulse 3s infinite ease-in-out; }
    @keyframes pulse {
      0%, 100% { r: 4; opacity: 0.6; }
      50% { r: 8; opacity: 1; }
    }
  </style>
  <rect width="100%" height="100%" fill="#020306"/>
  <!-- connections -->
  <line x1="100" y1="100" x2="300" y2="150" class="connection"/>
  <line x1="300" y1="150" x2="400" y2="350" class="connection"/>
  <line x1="400" y1="350" x2="200" y2="450" class="connection"/>
  <line x1="200" y1="450" x2="100" y2="100" class="connection"/>
  <line x1="300" y1="150" x2="600" y2="200" class="connection"/>
  <line x1="600" y1="200" x2="700" y2="400" class="connection"/>
  <line x1="700" y1="400" x2="400" y2="350" class="connection"/>
  <line x1="600" y1="200" x2="500" y2="100" class="connection"/>
  <line x1="500" y1="100" x2="300" y2="150" class="connection"/>
  <!-- nodes -->
  <circle cx="100" cy="100" r="6" class="node pulse-node"/>
  <circle cx="300" cy="150" r="5" class="node-orange"/>
  <circle cx="400" cy="350" r="6" class="node pulse-node"/>
  <circle cx="200" cy="450" r="5" class="node-orange"/>
  <circle cx="600" cy="200" r="7" class="node pulse-node"/>
  <circle cx="700" cy="400" r="5" class="node-orange"/>
  <circle cx="500" cy="100" r="6" class="node pulse-node"/>
</svg>