<svg xmlns="http://www.w3.org/2000/svg" viewBox="0 0 600 400" width="600" height="400">
  <rect width="100%" height="100%" fill="#0a0f1d" rx="10"/>
  <text x="300" y="40" fill="#ffffff" font-family="sans-serif" font-size="18" font-weight="bold" text-anchor="middle">Architecture Diagram</text>

  <g transform="translate(50, 80)">
    <!-- Arrows -->
    <path d="M120 100 H200" stroke="#ea580c" stroke-width="2"/>
    <path d="M320 100 L420 40" stroke="#2563eb" stroke-width="2"/>
    <path d="M320 100 L420 80" stroke="#2563eb" stroke-width="2"/>
    <path d="M320 100 L420 120" stroke="#2563eb" stroke-width="2"/>
    <path d="M320 100 L420 160" stroke="#2563eb" stroke-width="2"/>
    <path d="M320 100 L420 200" stroke="#2563eb" stroke-width="2"/>

    <!-- Nodes -->
    <rect x="0" y="75" width="120" height="50" rx="5" fill="#1e293b" stroke="#ea580c" stroke-width="2"/>
    <text x="60" y="105" fill="#ffffff" font-family="sans-serif" font-size="14" text-anchor="middle">AI Agent</text>

    <rect x="200" y="75" width="120" height="50" rx="5" fill="#1e293b" stroke="#2563eb" stroke-width="2"/>
    <text x="260" y="105" fill="#ffffff" font-family="sans-serif" font-size="14" text-anchor="middle">OpenMedia MCP</text>

    <rect x="420" y="15" width="110" height="35" rx="4" fill="#0f172a" stroke="#38bdf8" stroke-width="1.5"/>
    <text x="475" y="37" fill="#38bdf8" font-family="sans-serif" font-size="12" text-anchor="middle">Images</text>

    <rect x="420" y="60" width="110" height="35" rx="4" fill="#0f172a" stroke="#38bdf8" stroke-width="1.5"/>
    <text x="475" y="82" fill="#38bdf8" font-family="sans-serif" font-size="12" text-anchor="middle">SVG</text>

    <rect x="420" y="100" width="110" height="35" rx="4" fill="#0f172a" stroke="#38bdf8" stroke-width="1.5"/>
    <text x="475" y="122" fill="#38bdf8" font-family="sans-serif" font-size="12" text-anchor="middle">Animation</text>

    <rect x="420" y="140" width="110" height="35" rx="4" fill="#0f172a" stroke="#38bdf8" stroke-width="1.5"/>
    <text x="475" y="162" fill="#38bdf8" font-family="sans-serif" font-size="12" text-anchor="middle">Charts</text>

    <rect x="420" y="180" width="110" height="35" rx="4" fill="#0f172a" stroke="#38bdf8" stroke-width="1.5"/>
    <text x="475" y="202" fill="#38bdf8" font-family="sans-serif" font-size="12" text-anchor="middle">Video</text>
  </g>
</svg>