<svg xmlns="http://www.w3.org/2000/svg" viewBox="0 0 800 300" width="800" height="300">
  <defs>
    <linearGradient id="box-grad" x1="0%" y1="0%" x2="100%" y2="100%">
      <stop offset="0%" stop-color="#1e293b" stop-opacity="0.8" />
      <stop offset="100%" stop-color="#0f172a" stop-opacity="0.8" />
    </linearGradient>
    <linearGradient id="orange-blue" x1="0%" y1="0%" x2="100%" y2="0%">
      <stop offset="0%" stop-color="#ea580c" />
      <stop offset="100%" stop-color="#2563eb" />
    </linearGradient>
  </defs>
  <rect width="100%" height="100%" fill="#090d16" rx="12"/>
  
  <!-- Flow Lines -->
  <path d="M120 150 L200 150" stroke="url(#orange-blue)" stroke-width="4" fill="none"/>
  <path d="M320 150 L400 150" stroke="#2563eb" stroke-width="3" fill="none"/>
  <path d="M520 150 L580 100" stroke="#2563eb" stroke-width="2" fill="none"/>
  <path d="M520 150 L580 200" stroke="#2563eb" stroke-width="2" fill="none"/>
  <path d="M520 150 L600 150" stroke="#2563eb" stroke-width="2" fill="none"/>

  <!-- AI Agent -->
  <rect x="20" y="100" width="100" height="100" rx="8" fill="url(#box-grad)" stroke="#ea580c" stroke-width="1.5"/>
  <text x="70" y="155" fill="#ffffff" font-family="sans-serif" font-size="14" font-weight="bold" text-anchor="middle">AI Agent</text>

  <!-- MCP -->
  <rect x="200" y="100" width="120" height="100" rx="8" fill="url(#box-grad)" stroke="#2563eb" stroke-width="1.5"/>
  <text x="260" y="155" fill="#ffffff" font-family="sans-serif" font-size="14" font-weight="bold" text-anchor="middle">OpenMedia MCP</text>

  <!-- Engines -->
  <rect x="400" y="100" width="120" height="100" rx="8" fill="url(#box-grad)" stroke="#38bdf8" stroke-width="1.5"/>
  <text x="460" y="155" fill="#ffffff" font-family="sans-serif" font-size="14" font-weight="bold" text-anchor="middle">Vector Engine</text>

  <!-- Output badging -->
  <rect x="600" y="70" width="150" height="40" rx="6" fill="#1e1b4b" stroke="#8b5cf6" stroke-width="1"/>
  <text x="675" y="95" fill="#c084fc" font-family="sans-serif" font-size="12" font-weight="bold" text-anchor="middle">Images &amp; SVGs</text>

  <rect x="600" y="130" width="150" height="40" rx="6" fill="#1c1917" stroke="#ea580c" stroke-width="1"/>
  <text x="675" y="155" fill="#fdba74" font-family="sans-serif" font-size="12" font-weight="bold" text-anchor="middle">Video &amp; Audio</text>

  <rect x="600" y="190" width="150" height="40" rx="6" fill="#064e3b" stroke="#10b981" stroke-width="1"/>
  <text x="675" y="215" fill="#6ee7b7" font-family="sans-serif" font-size="12" font-weight="bold" text-anchor="middle">Animations &amp; Charts</text>
</svg>