<svg xmlns="http://www.w3.org/2000/svg" width="1019.0394" height="269" viewBox="0 0 1019.0394 269"><rect x="0" y="0" width="1019.0394" height="269" fill="#FFFFFF"/><defs><marker id="arrow-0" viewBox="0 0 10 10" refX="5" refY="5" markerUnits="userSpaceOnUse" markerWidth="8" markerHeight="8" orient="auto"><path d="M 0 0 L 10 5 L 0 10 z" fill="#64748B" stroke="#64748B" stroke-width="1" stroke-dasharray="1,0"/></marker><marker id="arrow-start-0" viewBox="0 0 10 10" refX="4.5" refY="5" markerUnits="userSpaceOnUse" markerWidth="8" markerHeight="8" orient="auto"><path d="M 0 5 L 10 10 L 10 0 z" fill="#64748B" stroke="#64748B" stroke-width="1" stroke-dasharray="1,0"/></marker></defs><path id="edge-0" class="edgePath" data-edge-id="edge-0" d="M 132.870,134.202 L 257.014,134.202" fill="none" stroke="#64748B" stroke-width="2"    stroke-linecap="round" stroke-linejoin="round" /><rect data-edge-id="edge-0" data-label-kind="center" x="139.77" y="88.30" width="110.94" height="28.40" rx="2" ry="2" fill="#FFFFFF" fill-opacity="0.00" stroke="#94A3B8" stroke-opacity="0.00" stroke-width="0.8"/><g class="edgeLabel" data-edge-id="edge-0" data-label-kind="center"><text x="195.24" y="106.00" text-anchor="middle" font-family="Inter,ui-sans-serif,system-ui,-apple-system,Segoe UI,sans-serif" font-size="14" fill="#0F172A"><tspan x="195.24" dy="0.00">MCP Request</tspan></text></g><path id="edge-1" class="edgePath" data-edge-id="edge-1" d="M 414.318,119.774 L 431.818,119.774 L 406.888,67.137 L 507.232,67.137 L 514.528,33.500" fill="none" stroke="#64748B" stroke-width="2"    stroke-linecap="round" stroke-linejoin="round" /><rect data-edge-id="edge-1" data-label-kind="center" x="414.89" y="30.74" width="84.34" height="28.40" rx="2" ry="2" fill="#FFFFFF" fill-opacity="0.00" stroke="#94A3B8" stroke-opacity="0.00" stroke-width="0.8"/><g class="edgeLabel" data-edge-id="edge-1" data-label-kind="center"><text x="457.06" y="48.44" text-anchor="middle" font-family="Inter,ui-sans-serif,system-ui,-apple-system,Segoe UI,sans-serif" font-size="14" fill="#0F172A"><tspan x="457.06" dy="0.00">SVG/SMIL</tspan></text></g><path id="edge-2" class="edgePath" data-edge-id="edge-2" d="M 414.318,141.852 L 431.818,141.852 L 554.323,134.500 L 571.823,134.500" fill="none" stroke="#64748B" stroke-width="2"    stroke-linecap="round" stroke-linejoin="round" /><rect data-edge-id="edge-2" data-label-kind="center" x="422.74" y="92.28" width="148.01" height="28.40" rx="2" ry="2" fill="#FFFFFF" fill-opacity="0.00" stroke="#94A3B8" stroke-opacity="0.00" stroke-width="0.8"/><g class="edgeLabel" data-edge-id="edge-2" data-label-kind="center"><text x="496.75" y="109.98" text-anchor="middle" font-family="Inter,ui-sans-serif,system-ui,-apple-system,Segoe UI,sans-serif" font-size="14" fill="#0F172A"><tspan x="496.75" dy="0.00">Headless Chrome</tspan></text></g><path id="edge-3" class="edgePath" data-edge-id="edge-3" d="M 414.318,149.800 L 419.951,183.150 L 559.287,183.150 L 532.120,235.500 L 549.620,235.500" fill="none" stroke="#64748B" stroke-width="2"    stroke-linecap="round" stroke-linejoin="round" /><rect data-edge-id="edge-3" data-label-kind="center" x="427.95" y="146.75" width="123.34" height="28.40" rx="2" ry="2" fill="#FFFFFF" fill-opacity="0.00" stroke="#94A3B8" stroke-opacity="0.00" stroke-width="0.8"/><g class="edgeLabel" data-edge-id="edge-3" data-label-kind="center"><text x="489.62" y="164.45" text-anchor="middle" font-family="Inter,ui-sans-serif,system-ui,-apple-system,Segoe UI,sans-serif" font-size="14" fill="#0F172A"><tspan x="489.62" dy="0.00">WGSL Compute</tspan></text></g><path id="edge-4" class="edgePath" data-edge-id="edge-4" d="M 737.237,134.500 L 878.061,134.500" fill="none" stroke="#64748B" stroke-width="2"    stroke-linecap="round" stroke-linejoin="round" /><rect data-edge-id="edge-4" data-label-kind="center" x="742.91" y="88.60" width="129.47" height="28.40" rx="2" ry="2" fill="#FFFFFF" fill-opacity="0.00" stroke="#94A3B8" stroke-opacity="0.00" stroke-width="0.8"/><g class="edgeLabel" data-edge-id="edge-4" data-label-kind="center"><text x="807.65" y="106.30" text-anchor="middle" font-family="Inter,ui-sans-serif,system-ui,-apple-system,Segoe UI,sans-serif" font-size="14" fill="#0F172A"><tspan x="807.65" dy="0.00">Render Frames</tspan></text></g><rect x="8.00" y="109.00" width="124.87" height="51.00" rx="3" ry="3" fill="#F8FAFC" stroke="#94A3B8" stroke-width="1" stroke-linejoin="round" stroke-linecap="round"/><text x="70.43" y="138.00" text-anchor="middle" font-family="Inter,ui-sans-serif,system-ui,-apple-system,Segoe UI,sans-serif" font-size="14" fill="#0F172A"><tspan x="70.43" dy="0.00">AI Agent</tspan></text><rect x="514.53" y="8.00" width="165.41" height="51.00" rx="3" ry="3" fill="#F8FAFC" stroke="#94A3B8" stroke-width="1" stroke-linejoin="round" stroke-linecap="round"/><text x="597.23" y="37.00" text-anchor="middle" font-family="Inter,ui-sans-serif,system-ui,-apple-system,Segoe UI,sans-serif" font-size="14" fill="#0F172A"><tspan x="597.23" dy="0.00">Animate Crate</tspan></text><rect x="571.82" y="109.00" width="165.41" height="51.00" rx="3" ry="3" fill="#F8FAFC" stroke="#94A3B8" stroke-width="1" stroke-linejoin="round" stroke-linecap="round"/><text x="654.53" y="138.00" text-anchor="middle" font-family="Inter,ui-sans-serif,system-ui,-apple-system,Segoe UI,sans-serif" font-size="14" fill="#0F172A"><tspan x="654.53" dy="0.00">Browser Crate</tspan></text><rect x="549.62" y="210.00" width="149.20" height="51.00" rx="3" ry="3" fill="#F8FAFC" stroke="#94A3B8" stroke-width="1" stroke-linejoin="round" stroke-linecap="round"/><text x="624.22" y="239.00" text-anchor="middle" font-family="Inter,ui-sans-serif,system-ui,-apple-system,Segoe UI,sans-serif" font-size="14" fill="#0F172A"><tspan x="624.22" dy="0.00">Image Crate</tspan></text><rect x="257.01" y="109.00" width="157.30" height="51.00" rx="3" ry="3" fill="#F8FAFC" stroke="#94A3B8" stroke-width="1" stroke-linejoin="round" stroke-linecap="round"/><text x="335.67" y="138.00" text-anchor="middle" font-family="Inter,ui-sans-serif,system-ui,-apple-system,Segoe UI,sans-serif" font-size="14" fill="#0F172A"><tspan x="335.67" dy="0.00">OpenMedia-RS</tspan></text><rect x="878.06" y="109.00" width="132.98" height="51.00" rx="3" ry="3" fill="#F8FAFC" stroke="#94A3B8" stroke-width="1" stroke-linejoin="round" stroke-linecap="round"/><text x="944.55" y="138.00" text-anchor="middle" font-family="Inter,ui-sans-serif,system-ui,-apple-system,Segoe UI,sans-serif" font-size="14" fill="#0F172A"><tspan x="944.55" dy="0.00">MP4 Video</tspan></text><g transform="translate(257.01 134.20) rotate(0.00)"><polygon points="0,0 -10.40,6.24 -10.40,-6.24" fill="#64748B" stroke="#64748B" stroke-width="2" stroke-linejoin="round" stroke-linecap="round"/></g><g transform="translate(514.53 33.50) rotate(-77.76)"><polygon points="0,0 -10.40,6.24 -10.40,-6.24" fill="#64748B" stroke="#64748B" stroke-width="2" stroke-linejoin="round" stroke-linecap="round"/></g><g transform="translate(571.82 134.50) rotate(0.00)"><polygon points="0,0 -10.40,6.24 -10.40,-6.24" fill="#64748B" stroke="#64748B" stroke-width="2" stroke-linejoin="round" stroke-linecap="round"/></g><g transform="translate(549.62 235.50) rotate(0.00)"><polygon points="0,0 -10.40,6.24 -10.40,-6.24" fill="#64748B" stroke="#64748B" stroke-width="2" stroke-linejoin="round" stroke-linecap="round"/></g><g transform="translate(878.06 134.50) rotate(0.00)"><polygon points="0,0 -10.40,6.24 -10.40,-6.24" fill="#64748B" stroke="#64748B" stroke-width="2" stroke-linejoin="round" stroke-linecap="round"/></g></svg>