<svg xmlns="http://www.w3.org/2000/svg" width="800" height="600">
  <rect x="0" y="0" width="800" height="600" fill="#1a1a2e" />
  <text x="284" y="35" fill="#ffffff" font-size="18" font-family="sans-serif">Rendering Engines Performance</text>
  <path d="M 400 278 L 439.94437368439645 307.0212862362522 L 424.6869805962839 353.9787137637478 L 375.3130194037161 353.9787137637478 L 360.05562631560355 307.0212862362522 Z" stroke-width="1" stroke="#333355" fill="none" />
  <path d="M 400 236 L 479.8887473687929 294.0425724725044 L 449.3739611925677 387.9574275274956 L 350.6260388074323 387.9574275274956 L 320.1112526312071 294.04257247250445 Z" fill="none" stroke-width="1" stroke="#333355" />
  <path d="M 400 194 L 519.8331210531893 281.06385870875664 L 474.0609417888516 421.93614129124336 L 325.9390582111484 421.93614129124336 L 280.16687894681064 281.06385870875664 Z" fill="none" stroke="#333355" stroke-width="1" />
  <path d="M 400 152 L 559.7774947375858 268.08514494500884 L 498.7479223851355 455.91485505499116 L 301.25207761486456 455.91485505499116 L 240.2225052624142 268.08514494500884 Z" fill="none" stroke="#333355" stroke-width="1" />
  <path d="M 400 110 L 599.7218684219822 255.10643118126103 L 523.4349029814193 489.89356881873897 L 276.5650970185807 489.89356881873897 L 200.27813157801774 255.1064311812611 Z" fill="none" stroke="#333355" stroke-width="1" />
  <path d="M 400 320 L 400 110" fill="none" stroke="#333355" stroke-width="1" />
  <text x="382" y="94" font-family="sans-serif" font-size="11" fill="#94a3b8">Images</text>
  <path d="M 400 320 L 599.7218684219822 255.10643118126103" stroke="#333355" stroke-width="1" fill="none" />
  <text x="600.7429987478853" y="252.9260912937621" fill="#94a3b8" font-size="11" font-family="sans-serif">Videos</text>
  <path d="M 400 320 L 523.4349029814193 489.89356881873897" fill="none" stroke="#333355" stroke-width="1" />
  <text x="505.1906080272688" y="510.07390870623794" font-size="11" fill="#94a3b8" font-family="sans-serif">Animations</text>
  <path d="M 400 320 L 276.5650970185807 489.89356881873897" fill="none" stroke="#333355" stroke-width="1" />
  <text x="240.8093919727312" y="510.07390870623794" font-family="sans-serif" fill="#94a3b8" font-size="11">Diagrams</text>
  <path d="M 400 320 L 200.27813157801774 255.1064311812611" stroke-width="1" stroke="#333355" fill="none" />
  <text x="148.25700125211466" y="252.9260912937621" font-size="11" font-family="sans-serif" fill="#94a3b8">Performance</text>
  <path d="M 400 139.6969696969697 L 581.5653349290748 261.0058465284191 L 518.4476341740892 483.0291821998 L 300.2546238533985 457.28773237877897 L 200.27813157801774 255.1064311812611 Z" fill="#3b82f6" opacity="0.35" />
  <path d="M 400 139.6969696969697 L 581.5653349290748 261.0058465284191 L 518.4476341740892 483.0291821998 L 300.2546238533985 457.28773237877897 L 200.27813157801774 255.1064311812611 Z" stroke="#3b82f6" stroke-width="2.5" fill="none" />
  <circle cx="400" cy="139.6969696969697" r="4" fill="#ffffff" stroke="#3b82f6" stroke-width="2" />
  <circle cx="581.5653349290748" cy="261.0058465284191" r="4" fill="#ffffff" stroke="#3b82f6" stroke-width="2" />
  <circle cx="518.4476341740892" cy="483.0291821998" r="4" stroke="#3b82f6" stroke-width="2" fill="#ffffff" />
  <circle cx="300.2546238533985" cy="457.28773237877897" r="4" fill="#ffffff" stroke="#3b82f6" stroke-width="2" />
  <circle cx="200.27813157801774" cy="255.1064311812611" r="4" fill="#ffffff" stroke-width="2" stroke="#3b82f6" />
</svg>